<?xml version="1.0" encoding="iso-8859-1"?>
<!-- Generator: Adobe Illustrator 19.0.0, SVG Export Plug-In . SVG Version: 6.00 Build 0)  -->
<svg version="1.1" id="Layer_1" xmlns="http://www.w3.org/2000/svg" xmlns:xlink="http://www.w3.org/1999/xlink" x="0px" y="0px"
	 viewBox="0 0 512 512" style="enable-background:new 0 0 512 512;" xml:space="preserve">
<g>
	<path style="fill:#507C5C;" d="M60.761,139.885c-7.81,0-14.144-6.332-14.144-14.144V60.76c0-7.812,6.334-14.144,14.144-14.144
		h64.979c7.81,0,14.144,6.332,14.144,14.144s-6.334,14.144-14.144,14.144H74.905v50.837
		C74.905,133.553,68.571,139.885,60.761,139.885z"/>
	<path style="fill:#507C5C;" d="M451.239,465.384H386.26c-7.81,0-14.144-6.332-14.144-14.144s6.334-14.144,14.144-14.144h50.835
		V386.26c0-7.812,6.334-14.144,14.144-14.144c7.81,0,14.144,6.332,14.144,14.144v64.98
		C465.383,459.05,459.05,465.384,451.239,465.384z"/>
	<path style="fill:#507C5C;" d="M497.856,512H14.144C6.334,512,0,505.668,0,497.856V14.144C0,6.332,6.334,0,14.144,0h483.713
		C505.667,0,512,6.332,512,14.144v483.713C512,505.668,505.667,512,497.856,512z M28.287,483.713h455.425V28.287H28.287V483.713z"/>
</g>
<path style="fill:#CFF09E;" d="M274.745,239.294h80.712v-53.747H274.36V99.182h-48.364c-0.454,2.769-0.781,5.438-1.221,8.038
	c-0.454,2.67-1.008,5.269-1.563,7.881c-7.71,36.834-28.782,62.181-64.61,74.777c-1.676,0.611-2.059,1.434-2.059,3.096
	c0.057,14.541,0.057,29.068,0.057,43.551c0,0.88,0.057,1.718,0.113,2.826h37.389v3.877c0,38.056-0.057,47.807,0,85.805
	c0,6.489,0.383,12.978,0.823,19.469c1.107,13.973,6.106,26.228,16.146,36.267c5.652,5.666,11.871,10.551,18.801,14.427
	c15.975,8.988,33.341,12.538,51.418,13.419c19.146,0.943,37.59-1.386,55.436-6.619v-51.592c-4.376,1.178-8.872,2.023-13.504,2.477
	c-12.141,1.206-23.798-0.171-34.448-6.717c-7.199-4.445-14.144-13.543-14.144-26.063c0-9.701-0.008-19.532-0.023-27.439"/>
<path style="fill:#507C5C;" d="M289.489,426.958c-2.964,0-5.928-0.072-8.895-0.219c-22.546-1.098-41.408-6.076-57.658-15.22
	c-7.731-4.324-15.103-9.97-21.879-16.766c-11.997-11.995-18.81-27.187-20.232-45.137c-0.004-0.055-0.008-0.109-0.013-0.163
	c-0.413-6.116-0.854-13.241-0.854-20.423c-0.035-24.056-0.027-36.799-0.014-52.576c0.004-6.73,0.01-14.011,0.013-22.962h-23.244
	c-7.53,0-13.741-5.901-14.125-13.421l-0.03-0.591c-0.059-1.093-0.1-2.007-0.1-2.956c0-14.466,0-28.975-0.057-43.496
	c0-7.722,4.246-13.848,11.359-16.439c0.051-0.018,0.1-0.037,0.151-0.055c30.501-10.722,48.641-31.765,55.457-64.331l0.085-0.396
	c0.511-2.414,0.993-4.693,1.379-6.96c0.206-1.226,0.388-2.486,0.573-3.768c0.199-1.373,0.402-2.768,0.634-4.187
	c1.122-6.836,7.031-11.854,13.957-11.854h48.364c7.81,0,14.144,6.332,14.144,14.144v72.22h66.952c7.81,0,14.144,6.332,14.144,14.144
	v53.747c0,7.812-6.334,14.144-14.144,14.144h-80.711c-7.81,0-14.144-6.332-14.144-14.144s6.334-14.144,14.144-14.144h66.567v-25.46
	H274.36c-7.81,0-14.144-6.332-14.144-14.144v-72.22h-22.191c-0.293,1.481-0.598,2.922-0.898,4.336l-0.078,0.365
	c-8.321,39.755-30.621,67.428-66.337,82.347c0.023,8.274,0.03,16.557,0.03,24.833h23.36c7.81,0,14.144,6.332,14.144,14.144v3.877
	c0,13.961-0.008,24.115-0.014,33.249c-0.013,15.759-0.023,28.487,0.014,52.535c0,6.288,0.405,12.813,0.785,18.446
	c0.901,11.173,4.84,20.108,12.043,27.31c5.014,5.027,10.145,8.976,15.704,12.084c12.534,7.052,26.887,10.744,45.202,11.636
	c13.629,0.675,27.241-0.489,40.605-3.451v-23.9c-15.917,1.249-29.423-1.676-41.216-8.923c-10.107-6.24-20.882-19.518-20.882-38.111
	c0-9.691-0.008-19.514-0.023-27.413c-0.014-7.812,6.308-14.155,14.118-14.169c0.008,0,0.018,0,0.025,0
	c7.802,0,14.129,6.315,14.144,14.118c0.014,7.915,0.023,17.755,0.023,27.463c0,6.96,3.839,11.81,7.431,14.028
	c6.892,4.237,15.047,5.728,25.618,4.677c3.742-0.368,7.515-1.061,11.224-2.059c4.246-1.146,8.787-0.247,12.282,2.43
	c3.493,2.676,5.541,6.826,5.541,11.227v51.592c0,6.278-4.138,11.806-10.164,13.572C323.948,424.481,306.757,426.958,289.489,426.958
	z"/>
<g>
</g>
<g>
</g>
<g>
</g>
<g>
</g>
<g>
</g>
<g>
</g>
<g>
</g>
<g>
</g>
<g>
</g>
<g>
</g>
<g>
</g>
<g>
</g>
<g>
</g>
<g>
</g>
<g>
</g>
</svg>
